PathFileType	4	(X/Y/Z)	/Users/niels/Desktop/University/Third Semester/Perception and Action/Exam/Gymnastics Motion Tracking/Code for Gym Tracking/Scripts/Analyzed Data/Start Salto/st_salto_good_id8_1_Sports2D/st_salto_good_id8_1_Sports2D_px_person01.trc
DataRate	CameraRate	NumFrames	NumMarkers	Units	OrigDataRate	OrigDataStartFrame	OrigNumFrames
156.22293616426876	156.22293616426876	11	22	m	156.22293616426876	408	467
Frame#	Time	Hip			RHip			RKnee			RAnkle			RBigToe			RSmallToe			RHeel			LHip			LKnee			LAnkle			LBigToe			LSmallToe			LHeel			Neck			Head			Nose			RShoulder			RElbow			RWrist			LShoulder			LElbow			LWrist		
		X1	Y1	Z1	X2	Y2	Z2	X3	Y3	Z3	X4	Y4	Z4	X5	Y5	Z5	X6	Y6	Z6	X7	Y7	Z7	X8	Y8	Z8	X9	Y9	Z9	X10	Y10	Z10	X11	Y11	Z11	X12	Y12	Z12	X13	Y13	Z13	X14	Y14	Z14	X15	Y15	Z15	X16	Y16	Z16	X17	Y17	Z17	X18	Y18	Z18	X19	Y19	Z19	X20	Y20	Z20	X21	Y21	Z21	X22	Y22	Z22
408	2.6116523605150217	1.944124825085383	-0.4840955282683418	0.0	1.9435569881911177	-0.4907558159169683	0.0	1.8875626472855813	-0.5460029883932517	0.0	1.7416186263212041	-0.5082582828982982	0.0	1.7220613917725345	-0.5527241393443676	0.0	1.7158851575762355	-0.541482459574957	0.0	1.724924749192514	-0.5013758161328575	0.0	1.9434851726306241	-0.4975051600170017	0.0	1.8882625830752648	-0.5460179290720256	0.0	1.7416075777641378	-0.5090256835915449	0.0	1.7239564755866794	-0.5532002465764453	0.0	1.7229446094788967	-0.5497920580584774	0.0	1.7262513822744507	-0.501640790734759	0.0			0.0			0.0			0.0	1.9397338256835823	-0.5462239379882738	0.0	1.8879228114994355	-0.5426113071141326	0.0	1.7427762767492454	-0.5120628101229525	0.0			0.0	1.889186644208002	-0.5428533324668883	0.0	1.739512653050867	-0.5121109950857295	0.0
409	2.618053469241774	1.94414109280008	-0.4841290707114812	0.0	1.943429942680931	-0.49190230283302167	0.0	1.8883832701959058	-0.5456097335100543	0.0	1.7433742479340175	-0.5075830730695268	0.0	1.7233896291936166	-0.55149051271168	0.0	1.7174203035204416	-0.5403375275291569	0.0	1.7268279756866631	-0.5006205508754145	0.0	1.9433504323702266	-0.4986110982560082	0.0	1.8890938995846844	-0.545627341418112	0.0	1.743367160802667	-0.5083522920427936	0.0	1.725233514629919	-0.5519495416720502	0.0	1.7243340844348132	-0.5484671478855108	0.0	1.72811408125835	-0.500934077483032	0.0			0.0			0.0			0.0	1.9397338256835825	-0.5462239379882738	0.0	1.8886718671867413	-0.5422325109563549	0.0	1.7444771551628353	-0.5112976768574814	0.0			0.0	1.8899186145280253	-0.5425246888138202	0.0	1.741293409803837	-0.5113448652973767	0.0
410	2.6244545779685264	1.9441585804275456	-0.4841651284959235	0.0	1.943288766664588	-0.49316920671594044	0.0	1.8892761749416391	-0.5451732038159814	0.0	1.7453032309458734	-0.5068422157439588	0.0	1.7248536796820166	-0.5501360815263143	0.0	1.7191097774330504	-0.5390817753573289	0.0	1.7289193447289009	-0.49979203423380253	0.0	1.9432013913083885	-0.49982668478461184	0.0	1.8899996732212478	-0.5451936954585644	0.0	1.745300952714727	-0.5076128537824316	0.0	1.7266419908144977	-0.5505790332723156	0.0	1.7258672302823856	-0.547018023059366	0.0	1.730159918907103	-0.5001581645727203	0.0			0.0			0.0			0.0	1.9397338256835828	-0.5462239379882738	0.0	1.889486787899312	-0.5418093888779678	0.0	1.7463466509392631	-0.5104600350413669	0.0			0.0	1.8907164201761213	-0.5421564058461126	0.0	1.743250815050333	-0.5105052953457446	0.0
411	2.630855686695279	1.9441772377181672	-0.48420359801186164	0.0	1.9431330709081727	-0.49455883452481136	0.0	1.8902406509575485	-0.5446922733651232	0.0	1.7474072344565488	-0.5060352472339907	0.0	1.7264555887689133	-0.5486598517733849	0.0	1.7209554949379564	-0.5377145010664258	0.0	1.7312006898356496	-0.4988897780281548	0.0	1.9430377530438463	-0.5011530395897015	0.0	1.8909793935916133	-0.5447158598087077	0.0	1.747410693824238	-0.5068068085656648	0.0	1.7281840167082456	-0.5490881675632314	0.0	1.727546457907961	-0.5454445548438721	0.0	1.7323905203065924	-0.49931248360915265	0.0			0.0			0.0			0.0	1.939733825683583	-0.5462239379882738	0.0	1.8903669058447885	-0.5413404076806057	0.0	1.748386483796405	-0.5095496787650693	0.0			0.0	1.891579658648356	-0.541746952631191	0.0	1.7453866883494598	-0.5095919368984767	0.0
412	2.6372567954220316	1.9441969865879039	-0.4842443182576092	0.0	1.9429626236630317	-0.49607197966381994	0.0	1.8912747233523468	-0.5441663097333876	0.0	1.7496854562961295	-0.5051626638159881	0.0	1.7281956004365955	-0.5470625720666724	0.0	1.7229572551018768	-0.5362366369007712	0.0	1.7336711789971475	-0.497914370195281	0.0	1.9428593971182935	-0.5025897379384386	0.0	1.8920312855477956	-0.544193192256542	0.0	1.7496956635684346	-0.5059345460325407	0.0	1.7298599839506361	-0.5474781922675684	0.0	1.7293723143577837	-0.5437485580139204	0.0	1.7348048887978003	-0.4983974645857376	0.0			0.0			0.0			0.0	1.9397338256835832	-0.5462239379882738	0.0	1.8913103976968737	-0.5408244751662792	0.0	1.7505959975374699	-0.5085675144125482	0.0			0.0	1.8925068174233817	-0.5412951654683588	0.0	1.7477003632273889	-0.5086055444732867	0.0
413	2.643657904148784	1.944217717186999	-0.4842870627336681	0.0	1.9427773835657745	-0.49770762847523964	0.0	1.8923749494657696	-0.5435952756348892	0.0	1.75213418884431	-0.504226092071228	0.0	1.7300718188457558	-0.5453470452790421	0.0	1.7251123507278852	-0.5346510379468837	0.0	1.7363268330537958	-0.49686766524015813	0.0	1.9426664135817104	-0.5041345303600997	0.0	1.8931521025042732	-0.5436256407266886	0.0	1.7521522350970424	-0.5049975758651929	0.0	1.73166823760897	-0.54575247131302	0.0	1.7313431282072995	-0.5419341229054564	0.0	1.7373989350851946	-0.4974147144061312	0.0			0.0			0.0			0.0	1.9397338256835832	-0.5462239379882738	0.0	1.892314098948817	-0.5402610392791907	0.0	1.7529717294046767	-0.5075157527894827	0.0			0.0	1.8934950918472482	-0.5408003344686846	0.0	1.7501882362529495	-0.5075481682161271	0.0
414	2.6500590128755364	1.9442392837415565	-0.4843315308684637	0.0	1.9425775356329842	-0.4994626408422231	0.0	1.8935362008851697	-0.5429798399843673	0.0	1.754746338369822	-0.5032284729622536	0.0	1.7320798411280074	-0.5435184655159702	0.0	1.7274151459647653	-0.5329627938866133	0.0	1.7391600044665487	-0.49575298999984324	0.0	1.9424591406431386	-0.5057830395212628	0.0	1.8943369046712388	-0.5430138536483967	0.0	1.7547733931783427	-0.5039987118087814	0.0	1.7336047224685929	-0.543916824427198	0.0	1.7334546242036457	-0.5400079730974379	0.0	1.7401649678687612	-0.49636720992304895	0.0			0.0			0.0			0.0	1.939733825683583	-0.5462239379882738	0.0	1.8933733050269417	-0.5396501971044062	0.0	1.7555069439007103	-0.5063981162762222	0.0			0.0	1.8945401896577072	-0.5402622990258936	0.0	1.7528432788800636	-0.5064233619638707	0.0
415	2.656460121602289	1.944261500191615	-0.48437733902447927	0.0	1.9423635303555762	-0.5013314051491524	0.0	1.8947514316715728	-0.5423214984017855	0.0	1.757510908723611	-0.5021742592817489	0.0	1.734212361682703	-0.5415847798047674	0.0	1.7298566218484104	-0.5311795632628148	0.0	1.7421588173765858	-0.49457536430650145	0.0	1.9422382053839111	-0.5075284345013233	0.0	1.8955788229129344	-0.5423592997269511	0.0	1.7575482162288405	-0.5029422692179276	0.0	1.7356626016439298	-0.5419798909133291	0.0	1.7356995075749444	-0.5379798478243121	0.0	1.743091146916924	-0.495259505134039	0.0			0.0			0.0			0.0	1.9397338256835828	-0.5462239379882738	0.0	1.8944815598534086	-0.5389928138284455	0.0	1.7581911318583459	-0.5052200605167825	0.0			0.0	1.8956361227608576	-0.5396815523180765	0.0	1.7556545128694343	-0.505236406136643	0.0
416	2.6628612303290415	1.9442841356569622	-0.48442401114920575	0.0	1.9421361258496073	-0.50330546829902	0.0	1.8960114339025365	-0.5416227030051438	0.0	1.760412450938126	-0.5010696258320991	0.0	1.7364587489495091	-0.5395570733645667	0.0	1.732423891013271	-0.529311929147573	0.0	1.7453065706281774	-0.4933417358237828	0.0	1.9420045674576256	-0.5093610834270119	0.0	1.8968688092990484	-0.5416643969689218	0.0	1.7604613240025067	-0.5018342755136572	0.0	1.7378318484068735	-0.5399535163393937	0.0	1.7380670189530096	-0.5358629076589378	0.0	1.746160900262132	-0.49409795188377387	0.0			0.0			0.0			0.0	1.9397338256835825	-0.5462239379882738	0.0	1.8956304328739193	-0.5382906516287297	0.0	1.7610094762333426	-0.5039890098344907	0.0			0.0	1.8967749871884354	-0.5390593548630961	0.0	1.7586064508289643	-0.503994544685875	0.0
417	2.669262339055794	1.944306916849033	-0.48447098374824205	0.0	1.9418964400425445	-0.5053731743116543	0.0	1.8973046584437938	-0.540886991657305	0.0	1.7634305586226697	-0.49992264924649293	0.0	1.7388045969592827	-0.5374498982843722	0.0	1.7350997240355663	-0.527373719012235	0.0	1.7485812089341897	-0.49206119757289646	0.0	1.9417595727184183	-0.5112681602017326	0.0	1.8981954426874341	-0.5409326318697694	0.0	1.7634923800770366	-0.5006826594798872	0.0	1.7400988033498705	-0.5378530444956239	0.0	1.7405424248859813	-0.533673981840725	0.0	1.7493524101418128	-0.4928909304782076	0.0			0.0			0.0			0.0	1.9397338256835823	-0.5462239379882738	0.0	1.8968093713247027	-0.5375465094232688	0.0	1.7639423823843803	-0.5027145706905845	0.0			0.0	1.897946789574093	-0.5383978581392435	0.0	1.7616786011077117	-0.5027072189773131	0.0
418	2.6756634477825467	1.9443295516345505	-0.4845176544712258	0.0	1.9416460268865658	-0.5075193779255329	0.0	1.898617342324825	-0.540119082738504	0.0	1.7665396787368943	-0.4987433430937901	0.0	1.7412313506439794	-0.5352812794527837	0.0	1.7378622576940435	-0.525382078771132	0.0	1.7519551838258078	-0.4907450608968096	0.0	1.9415050307264026	-0.513233155918595	0.0	1.8995450207978462	-0.5401686255806919	0.0	1.766615927967011	-0.49949730452406993	0.0	1.7424457202785322	-0.5356971279198883	0.0	1.7431064409487436	-0.5314331987245577	0.0	1.7526384880569834	-0.4916489908725992	0.0			0.0			0.0			0.0	1.939733825683582	-0.5462239379882738	0.0	1.8980058592081788	-0.536764407204319	0.0	1.7669653595706707	-0.5014085405778759	0.0			0.0	1.8991394949083398	-0.5377002629119462	0.0	1.7648453362099015	-0.5013861345631238	0.0
